<svg width="213" height="124" viewBox="0 0 213 124" fill="none" xmlns="http://www.w3.org/2000/svg">
<rect width="213" height="124" rx="12" fill="#1B1B1B"/>
<rect x="0.5" y="0.5" width="212" height="123" rx="11.5" stroke="white" stroke-opacity="0.25"/>
<path d="M122.744 36.4583C131.299 41.7429 137 51.2057 137 62C137 78.5685 123.569 92 107 92C103.387 92 99.923 91.3613 96.7159 90.1896L96.3733 90.062L96.9312 89.8829L97.6484 89.6476L98.0022 89.5294L98.3529 89.4109L99.0447 89.1725L99.7239 88.9326L100.39 88.6911L101.044 88.4481L101.366 88.3259L102.001 88.0804C102.672 87.8177 103.321 87.5522 103.948 87.2838L104.414 87.082L104.986 86.8281C105.237 86.715 105.485 86.6013 105.728 86.4871L106.091 86.3154L106.625 86.0564L106.887 85.9262L107.146 85.7956L107.654 85.5331C111.923 83.2942 114.823 80.862 116.362 78.1953C119.624 72.5451 116.775 66.5071 108.597 60.3514L107.931 59.8524L107.527 59.5424L107.134 59.2347L106.754 58.9293L106.384 58.6263L106.204 58.4757L106.027 58.3257L105.681 58.0273L105.429 57.805L105.184 57.5841L104.867 57.2914L104.561 57.0011L104.267 56.713L104.125 56.5698L103.985 56.4272L103.713 56.1436C100.48 52.7067 99.7582 49.7645 101.226 47.2223C101.973 45.9284 103.268 44.6562 105.109 43.4173L105.333 43.2688L105.685 43.0423C105.844 42.9418 106.007 42.8415 106.173 42.7415L106.425 42.5916L106.814 42.3675L107.215 42.1441L107.524 41.9772L107.84 41.8107L108.271 41.5895C108.6 41.4239 108.938 41.2591 109.287 41.095L109.639 40.9311L110.12 40.7135L110.365 40.605L110.864 40.3888L111.118 40.2811L111.635 40.0663L111.898 39.9593L112.433 39.746L112.706 39.6397L113.259 39.4279L113.825 39.2172L114.113 39.1122L114.697 38.903L115.294 38.6949L115.902 38.4879L116.211 38.3847L116.838 38.1794L117.477 37.9751L118.129 37.772L118.792 37.5701L119.468 37.3693L120.329 37.12L121.21 36.8725L122.292 36.5781L122.744 36.4583ZM107 32C110.648 32 114.144 32.6512 117.379 33.8438L117.724 33.9736L117.505 34.0399L116.437 34.3693L116.087 34.48L115.396 34.7025L114.719 34.9269L114.053 35.1529L113.401 35.3807L112.761 35.6104L112.446 35.7258L111.671 36.0165L110.916 36.31L110.326 36.5469L110.036 36.6661L109.465 36.9057C103.631 39.3922 99.807 42.1801 97.9784 45.3473C94.7869 50.8751 97.6816 56.8342 105.861 62.9882L106.527 63.4872L106.931 63.7975L107.323 64.1055L107.515 64.2587L107.889 64.5634L108.163 64.7905L108.429 65.0164L108.775 65.3157L108.943 65.4645L109.271 65.7605C109.45 65.9244 109.623 66.0873 109.792 66.2492L110.04 66.4913L110.398 66.8518L110.737 67.2089C113.956 70.6697 114.644 73.6707 113.115 76.3203C112.125 78.0348 110.235 79.7225 107.45 81.3609L107.194 81.5097L106.779 81.7445L106.353 81.9785C106.112 82.1084 105.866 82.2379 105.614 82.367L105.232 82.5605L104.762 82.792L104.28 83.0227L103.785 83.2526L103.533 83.3673L103.02 83.596L102.495 83.8239L101.957 84.0509L101.684 84.1641L101.128 84.3899L100.845 84.5025L100.559 84.6148L99.9784 84.8388L99.3854 85.0619L98.78 85.2841L98.1624 85.5053L97.5325 85.7256L97.213 85.8354L96.5646 86.0542L96.2359 86.1632L95.5691 86.3806L94.8901 86.5969L94.024 86.8659L93.1388 87.1332L92.4168 87.3459L91.4092 87.6357C82.769 82.3698 77 72.8586 77 62C77 45.4315 90.4315 32 107 32Z" fill="#0080FF"/>
</svg>
