<svg width="213" height="124" viewBox="0 0 213 124" fill="none" xmlns="http://www.w3.org/2000/svg">
<rect width="213" height="124" rx="12" fill="#1B1B1B"/>
<rect x="0.5" y="0.5" width="212" height="123" rx="11.5" stroke="white" stroke-opacity="0.25"/>
<path d="M104.44 33.0681L78.0635 59.4396C76.6455 60.8574 76.6455 63.1474 78.0635 64.5651L104.44 90.9367C105.858 92.3544 108.149 92.3544 109.567 90.9367L120.626 79.8795C121.896 78.6097 121.896 76.5511 120.626 75.2814C119.356 74.0117 117.297 74.0117 116.027 75.2814L107.643 83.6638C107.29 84.0166 106.755 84.0166 106.402 83.6638L85.3379 62.6042C84.985 62.2513 84.985 61.7158 85.3379 61.3629L106.402 40.3033C106.755 39.9504 107.29 39.9504 107.643 40.3033L116.027 48.6857C117.297 49.9554 119.356 49.9554 120.626 48.6857C121.896 47.416 121.896 45.3574 120.626 44.0876L109.568 33.0316C108.144 31.6445 105.853 31.6558 104.44 33.0681Z" fill="url(#paint0_linear_52_33)"/>
<path d="M104.44 33.0681L78.0635 59.4396C76.6455 60.8574 76.6455 63.1474 78.0635 64.5651L104.44 90.9367C105.858 92.3544 108.149 92.3544 109.567 90.9367L120.626 79.8795C121.896 78.6097 121.896 76.5511 120.626 75.2814C119.356 74.0117 117.297 74.0117 116.027 75.2814L107.643 83.6638C107.29 84.0166 106.755 84.0166 106.402 83.6638L85.3379 62.6042C84.985 62.2513 84.985 61.7158 85.3379 61.3629L106.402 40.3033C107.281 39.5452 108.715 38.0097 110.82 37.6505C112.385 37.3836 114.096 37.9711 115.953 39.4129C114.712 38.1717 112.583 36.0446 109.568 33.0316C108.144 31.6445 105.853 31.6558 104.44 33.0681Z" fill="url(#paint1_linear_52_33)"/>
<path d="M123.179 72.8288C124.449 74.0985 126.508 74.0985 127.778 72.8288L135.936 64.6724C137.355 63.2547 137.355 60.9647 135.937 59.5471L127.708 51.3488C126.435 50.0806 124.375 50.0824 123.104 51.3529C121.834 52.6226 121.834 54.6813 123.104 55.951L128.662 61.5079C129.015 61.8607 129.015 62.3963 128.662 62.7492L123.179 68.2307C121.909 69.5004 121.909 71.5591 123.179 72.8288Z" fill="url(#paint2_linear_52_33)"/>
<path d="M107.135 69.2545C111.069 69.2545 114.257 66.0667 114.257 62.1342C114.257 58.2018 111.069 55.0139 107.135 55.0139C103.202 55.0139 100.014 58.2018 100.014 62.1342C100.014 66.0667 103.202 69.2545 107.135 69.2545Z" fill="url(#paint3_linear_52_33)"/>
<defs>
<linearGradient id="paint0_linear_52_33" x1="2845.45" y1="32.0001" x2="5352.87" y2="1562.29" gradientUnits="userSpaceOnUse">
<stop stop-color="#4285EB"/>
<stop offset="1" stop-color="#2EC7FF"/>
</linearGradient>
<linearGradient id="paint1_linear_52_33" x1="3181.66" y1="32" x2="1942.16" y2="6434.08" gradientUnits="userSpaceOnUse">
<stop stop-color="#29CDFF"/>
<stop offset="0.378601" stop-color="#148EFF"/>
<stop offset="1" stop-color="#0A60FF"/>
</linearGradient>
<linearGradient id="paint2_linear_52_33" x1="1156.95" y1="-252.97" x2="-455.316" y2="2266.92" gradientUnits="userSpaceOnUse">
<stop stop-color="#FA816E"/>
<stop offset="0.414726" stop-color="#F74A5C"/>
<stop offset="1" stop-color="#F51D2C"/>
</linearGradient>
<linearGradient id="paint3_linear_52_33" x1="1070.4" y1="-453.242" x2="533.793" y2="1691.92" gradientUnits="userSpaceOnUse">
<stop stop-color="#FA8E7D"/>
<stop offset="0.512635" stop-color="#F74A5C"/>
<stop offset="1" stop-color="#F51D2C"/>
</linearGradient>
</defs>
</svg>
