<svg width="64" height="64" viewBox="0 0 64 64" fill="none" xmlns="http://www.w3.org/2000/svg">
<rect width="64" height="64" rx="8" fill="#00EE7A" fill-opacity="0.25"/>
<g clip-path="url(#clip0_52_4438)">
<path d="M35.3468 30.7796L27.2655 25.0467C26.3979 24.4309 25.1952 24.6353 24.5795 25.5032L24.4998 25.6154C23.8844 26.4831 24.0886 27.6857 24.9565 28.3014L33.0376 34.0346C33.9055 34.6502 35.1079 34.4459 35.7237 33.5781L35.8032 33.4658C36.4192 32.5979 36.2145 31.3953 35.3468 30.7796Z" fill="#F39A2B"/>
<path d="M34.8541 28.5387L34.7419 28.4592C33.874 27.8435 32.6714 28.048 32.0557 28.9157L22.8986 41.823C22.2829 42.6908 22.4874 43.8935 23.3553 44.5091L23.4674 44.5888C24.3353 45.2045 25.5379 45.0001 26.1534 44.1322L35.3106 31.2249C35.9265 30.3569 35.722 29.1545 34.8541 28.5387Z" fill="#E5594F"/>
<path d="M46.8305 32.5126C46.8164 34.4699 46.514 36.0973 45.7562 38.0799C45.2394 39.4324 44.0285 41.2899 43.0012 42.42C40.5405 45.1275 37.045 46.8455 33.5961 47.1706C29.6596 47.5418 26.189 46.4879 22.9989 44.1022C23.2977 44.3258 22.7045 43.8519 22.7231 43.8675C22.5449 43.7182 22.3728 43.562 22.2009 43.4056C21.857 43.093 21.5327 42.7597 21.2155 42.4203C20.5066 41.6613 20.1925 41.2279 19.5968 40.2771C18.5378 38.5871 18.0068 37.1411 17.6043 35.0999C17.4475 34.3048 17.3936 33.5451 17.3861 32.5127C17.3654 29.6482 12.9217 29.6463 12.9425 32.5127C13.0052 41.2036 18.9619 48.9247 27.3992 51.0953C35.8555 53.271 44.9398 49.1712 49.0363 41.5039C50.5111 38.7436 51.2518 35.6358 51.2743 32.5125C51.2949 29.6462 46.8512 29.6482 46.8305 32.5126Z" fill="#1B92D1"/>
<path d="M17.386 31.5886C17.4002 29.6314 17.7025 28.0042 18.4603 26.0214C18.9772 24.6691 20.1882 22.8116 21.2154 21.6813C23.6761 18.9739 27.1713 17.2559 30.6204 16.9307C34.5568 16.5596 38.0277 17.6135 41.2177 19.9992C40.9188 19.7757 41.5119 20.2495 41.4934 20.234C41.6716 20.3832 41.8437 20.5395 42.0157 20.6958C42.3596 21.0083 42.684 21.3417 43.0012 21.6812C43.71 22.4401 44.0241 22.8736 44.6198 23.8244C45.6789 25.5144 46.21 26.9603 46.6124 29.0014C46.7692 29.7964 46.8232 30.5563 46.8306 31.5886C46.8512 34.4531 51.2949 34.4552 51.2743 31.5886C51.2115 22.8976 45.2545 15.1767 36.8173 13.006C28.361 10.8302 19.2769 14.9302 15.1804 22.5975C13.7057 25.3578 12.965 28.4654 12.9425 31.5886C12.9216 34.4552 17.3653 34.4531 17.386 31.5886Z" fill="#00EE7A"/>
</g>
<defs>
<clipPath id="clip0_52_4438">
<rect width="40" height="40" fill="white" transform="translate(12 12)"/>
</clipPath>
</defs>
</svg>
