<svg width="213" height="124" viewBox="0 0 213 124" fill="none" xmlns="http://www.w3.org/2000/svg">
<rect width="213" height="124" rx="12" fill="#1B1B1B"/>
<rect x="0.5" y="0.5" width="212" height="123" rx="11.5" stroke="white" stroke-opacity="0.25"/>
<path d="M86.304 84.402L81.812 34H131.188L126.69 84.394L106.47 90L86.304 84.402Z" fill="#1572B6"/>
<path d="M106.5 85.716L122.84 81.186L126.684 38.122H106.5V85.716Z" fill="#33A9DC"/>
<path d="M106.5 56.382H114.68L115.244 50.052H106.5V43.87H106.522H122L121.852 45.528L120.334 62.564H106.5V56.382Z" fill="white"/>
<path d="M106.538 72.436L106.51 72.444L99.626 70.584L99.186 65.654H95.84H92.98L93.846 75.36L106.508 78.876L106.538 78.868V72.436Z" fill="#EBEBEB"/>
<path d="M114.154 62.302L113.41 70.58L106.516 72.44V78.872L119.188 75.36L119.282 74.316L120.356 62.302H114.154Z" fill="white"/>
<path d="M106.522 43.87V47.71V50.036V50.052H91.6099H91.5899L91.4659 48.662L91.1839 45.528L91.0359 43.87H106.522Z" fill="#EBEBEB"/>
<path d="M106.5 56.382V60.222V62.548V62.564H99.7219H99.7019L99.5779 61.174L99.2979 58.04L99.1499 56.382H106.5Z" fill="#EBEBEB"/>
</svg>
