<svg width="213" height="124" viewBox="0 0 213 124" fill="none" xmlns="http://www.w3.org/2000/svg">
<rect width="213" height="124" rx="12" fill="#1B1B1B"/>
<rect x="0.5" y="0.5" width="212" height="123" rx="11.5" stroke="white" stroke-opacity="0.25"/>
<path d="M134.5 34H78.5V90H134.5V34Z" fill="#FFCA28"/>
<path d="M112.5 80.5758L116.623 77.8474C116.946 78.8626 118.992 81.2736 121.577 81.2736C124.162 81.2736 125.362 79.862 125.362 78.926C125.362 76.3756 122.722 75.4764 121.455 75.0446C121.248 74.9742 121.078 74.9162 120.962 74.8656C120.902 74.8396 120.812 74.805 120.696 74.7608C119.286 74.2222 114.085 72.235 114.085 66.4746C114.085 60.13 120.208 59.4004 121.592 59.4004C122.498 59.4004 126.854 59.5114 129.023 63.5878L125.023 66.3796C124.146 64.603 122.689 64.0162 121.792 64.0162C119.577 64.0162 119.115 65.6402 119.115 66.3796C119.115 68.454 121.522 69.3838 123.555 70.1688C124.086 70.3742 124.592 70.5696 125.023 70.7732C127.238 71.82 130.5 73.5332 130.5 78.926C130.5 81.6272 128.234 86.0004 122.531 86.0004C114.869 86.0004 112.838 81.4006 112.5 80.5758Z" fill="#3E3E3E"/>
<path d="M92.5 81.1174L96.7974 78.3906C97.134 79.4052 98.4426 81.276 100.341 81.276C102.24 81.276 103.211 79.326 103.211 78.3906V60.0004H108.496V78.3906C108.582 80.9272 107.175 86.0004 100.966 86.0004C95.258 86.0004 92.8848 82.6078 92.5 81.1174Z" fill="#3E3E3E"/>
</svg>
