<svg width="135" height="17" viewBox="0 0 135 17" fill="none" xmlns="http://www.w3.org/2000/svg">
<path d="M13.062 0.709999L8.00203 10.456V16H5.49403V10.456L0.412031 0.709999H3.20603L6.74803 8.212L10.29 0.709999H13.062ZM23.2703 12.876H16.8683L15.7683 16H13.1503L18.6283 0.687999H21.5323L27.0103 16H24.3703L23.2703 12.876ZM22.5663 10.83L20.0803 3.724L17.5723 10.83H22.5663ZM35.4102 8.366L40.1622 16H37.3462L33.8922 10.456L30.6582 16H27.8642L32.6162 8.366L27.8422 0.709999H30.6582L34.1342 6.298L37.3902 0.709999H40.1842L35.4102 8.366ZM53.2456 0.709999L48.1856 10.456V16H45.6776V10.456L40.5956 0.709999H43.3896L46.9316 8.212L50.4736 0.709999H53.2456ZM61.2099 16.154C59.7873 16.154 58.4746 15.824 57.2719 15.164C56.0839 14.4893 55.1379 13.558 54.4339 12.37C53.7446 11.1673 53.3999 9.818 53.3999 8.322C53.3999 6.826 53.7446 5.484 54.4339 4.296C55.1379 3.108 56.0839 2.184 57.2719 1.524C58.4746 0.849332 59.7873 0.511999 61.2099 0.511999C62.6473 0.511999 63.9599 0.849332 65.1479 1.524C66.3506 2.184 67.2966 3.108 67.9859 4.296C68.6753 5.484 69.0199 6.826 69.0199 8.322C69.0199 9.818 68.6753 11.1673 67.9859 12.37C67.2966 13.558 66.3506 14.4893 65.1479 15.164C63.9599 15.824 62.6473 16.154 61.2099 16.154ZM61.2099 13.976C62.2219 13.976 63.1239 13.7487 63.9159 13.294C64.7079 12.8247 65.3239 12.1647 65.7639 11.314C66.2186 10.4487 66.4459 9.45133 66.4459 8.322C66.4459 7.19267 66.2186 6.20267 65.7639 5.352C65.3239 4.50133 64.7079 3.84867 63.9159 3.394C63.1239 2.93933 62.2219 2.712 61.2099 2.712C60.1979 2.712 59.2959 2.93933 58.5039 3.394C57.7119 3.84867 57.0886 4.50133 56.6339 5.352C56.1939 6.20267 55.9739 7.19267 55.9739 8.322C55.9739 9.45133 56.1939 10.4487 56.6339 11.314C57.0886 12.1647 57.7119 12.8247 58.5039 13.294C59.2959 13.7487 60.1979 13.976 61.2099 13.976ZM78.6719 8.146C79.4932 8.29267 80.1899 8.72533 80.7619 9.444C81.3339 10.1627 81.6199 10.9767 81.6199 11.886C81.6199 12.6633 81.4146 13.3673 81.0039 13.998C80.6079 14.614 80.0286 15.1053 79.2659 15.472C78.5032 15.824 77.6159 16 76.6039 16H70.4879V0.709999H76.3179C77.3592 0.709999 78.2539 0.885999 79.0019 1.238C79.7499 1.59 80.3146 2.06667 80.6959 2.668C81.0772 3.25467 81.2679 3.91467 81.2679 4.648C81.2679 5.528 81.0332 6.26133 80.5639 6.848C80.0946 7.43467 79.4639 7.86733 78.6719 8.146ZM72.9959 7.134H76.0979C76.9192 7.134 77.5572 6.95067 78.0119 6.584C78.4812 6.20267 78.7159 5.66 78.7159 4.956C78.7159 4.26667 78.4812 3.73133 78.0119 3.35C77.5572 2.954 76.9192 2.756 76.0979 2.756H72.9959V7.134ZM76.3839 13.954C77.2346 13.954 77.9019 13.7487 78.3859 13.338C78.8699 12.9273 79.1119 12.3553 79.1119 11.622C79.1119 10.874 78.8552 10.28 78.3419 9.84C77.8286 9.4 77.1466 9.18 76.2959 9.18H72.9959V13.954H76.3839ZM85.8533 2.734V7.222H91.1333V9.268H85.8533V13.954H91.7933V16H83.3453V0.687999H91.7933V2.734H85.8533ZM102.308 16L96.3904 9.158V16H93.8824V0.709999H96.3904V7.684L102.33 0.709999H105.476L98.8324 8.366L105.586 16H102.308Z" fill="white"/>
<path d="M107.816 16.154C107.362 16.154 106.98 16 106.672 15.692C106.364 15.384 106.21 15.0027 106.21 14.548C106.21 14.0933 106.364 13.712 106.672 13.404C106.98 13.096 107.362 12.942 107.816 12.942C108.256 12.942 108.63 13.096 108.938 13.404C109.246 13.712 109.4 14.0933 109.4 14.548C109.4 15.0027 109.246 15.384 108.938 15.692C108.63 16 108.256 16.154 107.816 16.154ZM113.597 0.709999V10.456C113.597 11.6147 113.898 12.4873 114.499 13.074C115.115 13.6607 115.966 13.954 117.051 13.954C118.151 13.954 119.002 13.6607 119.603 13.074C120.219 12.4873 120.527 11.6147 120.527 10.456V0.709999H123.035V10.412C123.035 11.6587 122.764 12.7147 122.221 13.58C121.678 14.4453 120.952 15.0907 120.043 15.516C119.134 15.9413 118.129 16.154 117.029 16.154C115.929 16.154 114.924 15.9413 114.015 15.516C113.12 15.0907 112.409 14.4453 111.881 13.58C111.353 12.7147 111.089 11.6587 111.089 10.412V0.709999H113.597ZM127.72 13.822H134.826V16H124.75V14.042L131.834 2.888H124.75V0.709999H134.826V2.668L127.72 13.822Z" fill="#39965F"/>
</svg>
