<svg width="208" height="183" viewBox="0 0 208 183" fill="none" xmlns="http://www.w3.org/2000/svg">
<path d="M115.05 178.096L135.135 177.855C141.913 177.349 144.024 175.211 146.115 168.973L150.548 155.823L141.038 154.353L137.204 165.745C137.004 166.348 136.616 166.871 136.098 167.239C135.579 167.606 134.957 167.799 134.322 167.788L118.534 167.474C114.12 167.24 113.269 164.746 114.088 162.315L118.195 150.128L106.024 146.59L101.514 160C100.098 164.22 99.2299 168.861 101.313 172.492C103.71 176.678 107.273 178.173 115.05 178.096Z" fill="#34A853"/>
<path d="M150.262 156.664L147.896 163.682C147.896 163.682 146.749 162.15 143.273 162.032C139.316 161.894 137.866 163.757 137.866 163.757L140.297 156.54L150.262 156.664Z" fill="#39965F"/>
<path d="M116.114 156.26L102.811 156.071C101.216 160.045 100.583 163.143 100.583 163.143C100.583 163.143 103.232 160.676 108.403 160.75C112.101 160.797 113.778 163.277 113.778 163.277L116.114 156.26Z" fill="#39965F"/>
<path d="M180.108 161.868C172.343 159.255 169.894 145.711 174.638 131.618C179.382 117.524 189.522 108.219 197.287 110.832C205.052 113.446 207.501 126.99 202.757 141.083C198.013 155.176 187.873 164.482 180.108 161.868Z" fill="#B8DADE"/>
<path d="M172.501 149.67C175.321 147.3 183.594 152.964 183.594 152.964C184.985 160.026 192.742 157.562 192.742 157.562C188.604 161.444 184.054 163.184 180.109 161.859C175.92 160.456 173.29 155.833 172.501 149.67Z" fill="#82AEC0"/>
<path d="M84.7696 34.2387L190.336 111.365C194.495 113.91 196.976 124.865 192.661 137.679C188.346 150.492 179.62 158.25 174.773 156.911L44.1954 154.832C29.7769 149.985 27.179 119.044 38.3815 85.7421C49.5839 52.4401 70.3512 29.3917 84.7696 34.2387Z" fill="#39965F"/>
<path d="M68.6599 134.114C64.2512 141.42 71.9072 141.334 102.899 144.847C111.376 145.814 183.595 152.979 183.595 152.979C181.756 154.863 178.036 157.837 174.685 156.946C174.685 156.946 46.6277 155.666 44.1815 154.848L68.6599 134.114Z" fill="#39965F"/>
<path d="M97.1417 53.3424C94.9652 51.9394 91.8319 49.7604 90.9009 45.7536C90.4158 43.6611 90.0197 41.2636 89.4713 40.2559C88.39 38.2547 84.4137 33.7466 84.4137 33.7466L190.321 111.365C193.16 113.094 193.714 116.204 193.714 116.204C177.555 105.365 113.187 63.7219 97.1417 53.3424Z" fill="#39965F"/>
<path d="M37.109 156.18C22.9137 151.402 20.998 119.033 32.8302 83.8826C44.6625 48.7319 65.762 24.1103 79.9573 28.8887C94.1526 33.667 96.0682 66.0359 84.236 101.187C72.4038 136.337 51.3043 160.959 37.109 156.18Z" fill="#B8DADE"/>
<path d="M37.4533 144.233C28.1416 141.098 28.5523 114.912 38.3706 85.744C48.189 56.5761 63.697 35.4718 73.0087 38.6063C82.3205 41.7407 81.9098 67.927 72.0914 97.0949C62.2731 126.263 46.7651 147.367 37.4533 144.233Z" fill="#39965F"/>
<path d="M37.4518 144.236C28.1402 141.104 28.5552 114.916 38.3668 85.7429L72.0826 97.1039C62.2702 126.262 46.7635 147.368 37.4518 144.236Z" fill="url(#paint0_linear_50_17)"/>
<path d="M88.4515 68.6683C89.9379 60.0587 89.3665 52.308 87.8202 46.3057C87.3894 44.676 86.1473 42.7584 84.4648 43.0418C82.7973 43.3245 82.3862 44.9382 82.6689 46.6057C83.6279 52.2933 83.5315 60.1992 82.3953 67.754C82.1379 69.4348 82.2817 71.6052 84.6775 72.3208C86.7539 72.963 88.1854 70.1843 88.4515 68.6683Z" fill="white"/>
<path opacity="0.45" d="M188.354 120.255L101.928 68.4276C99.2926 66.8684 95.9851 64.2329 95.6511 69.8981C95.4454 73.4237 95.1546 76.4731 95.7078 81.0104C96.0509 83.8313 101.723 85.7271 103.507 86.5198L188.723 125.298C190.014 125.861 192.382 126.323 191.874 124.081C191.311 121.663 189.051 120.67 188.354 120.255Z" fill="#00EE7A"/>
<defs>
<linearGradient id="paint0_linear_50_17" x1="38.0944" y1="139.529" x2="54.5396" y2="93.3969" gradientUnits="userSpaceOnUse">
<stop stop-color="#353738"/>
<stop offset="1" stop-color="#353738" stop-opacity="0"/>
</linearGradient>
</defs>
</svg>
