<svg width="177" height="177" viewBox="0 0 177 177" fill="none" xmlns="http://www.w3.org/2000/svg">
<g clip-path="url(#clip0_50_450)">
<mask id="mask0_50_450" style="mask-type:luminance" maskUnits="userSpaceOnUse" x="4" y="16" width="168" height="145">
<path d="M33.0868 16.0448L171.227 53.0592L142.42 160.567L4.28005 123.553L33.0868 16.0448Z" fill="white"/>
</mask>
<g mask="url(#mask0_50_450)">
<path d="M105.689 83.6422C120.656 88.1618 135.617 92.7017 150.6 97.1729C152.33 97.6441 154.103 97.9432 155.892 98.0666C156.186 98.1115 156.486 98.0948 156.773 98.0172C157.06 97.9396 157.328 97.8026 157.559 97.6156C157.79 97.4286 157.98 97.1957 158.116 96.9311C158.252 96.6668 158.331 96.3771 158.348 96.0802C158.556 94.7029 157.801 93.8429 156.59 93.3976C154.396 92.59 152.192 91.7935 149.967 91.0884C139.322 87.7173 128.695 84.2842 118.01 81.0452C102.33 76.2971 86.5507 71.8697 70.9181 66.9723C61.4992 64.021 52.0232 61.04 43.5155 55.8108C41.5135 54.611 39.6429 53.2062 37.9333 51.6181C35.3255 49.1323 34.3652 45.9811 34.7341 42.3276C35.9763 30.0267 51.2045 25.5446 58.4772 31.507C61.566 34.0386 64.5999 36.4425 65.5106 40.6204C66.4017 44.7034 64.9804 47.4199 61.0381 48.9043C58.419 49.8904 57.5611 50.8923 57.8894 52.5806C58.2503 54.4327 60.0868 55.5182 62.6379 55.3862C68.9525 55.0594 73.504 49.5591 73.1816 42.574C73.0266 38.8188 71.6934 35.207 69.3727 32.2501C65.9844 27.8969 61.7392 24.556 56.4051 22.8454C47.2206 19.9004 39.2195 22.5462 32.7221 29.0385C23.692 38.0611 25.2553 51.9156 35.7356 59.2562C41.1751 63.008 47.1499 65.9185 53.4567 67.8902C66.1123 71.9514 78.8773 75.6735 91.5975 79.5409C96.2802 80.9647 100.959 82.3955 105.635 83.8335L105.689 83.6422Z" fill="white" fill-opacity="0.1"/>
<path d="M113.38 116.287C125.697 119.587 136.678 122.539 147.666 125.467C150.156 126.13 151.414 125.849 151.894 124.651C152.423 123.33 151.468 122.045 148.959 121.187C141.824 118.746 134.717 116.171 127.479 114.061C113.597 110.016 99.6571 106.166 85.693 102.414C78.2515 100.415 70.637 99.6385 62.9542 100.827C56.7214 101.793 51.9095 104.949 49.8681 111.078C47.347 118.646 48.5435 125.795 53.6348 132.081C58.3501 137.905 64.3886 140.926 72.0067 140.329C83.0313 139.464 85.5956 128.585 82.1652 122.117C81.1585 120.255 79.8783 118.554 78.3676 117.07C76.8669 115.586 74.6214 115.532 73.3777 116.474C72.1872 117.378 71.7679 119.181 72.5143 121.157C73.0688 122.419 73.6994 123.648 74.4031 124.834C76.483 128.791 74.7518 131.867 70.3546 132.054C61.6644 132.423 53.2125 122.513 57.4875 112.415C58.6088 109.764 61.0527 108.575 63.8079 108.109C69.6917 107.085 75.7209 107.243 81.5428 108.577C92.6279 111.14 103.662 113.92 113.38 116.287Z" fill="white" fill-opacity="0.1"/>
<path d="M105.761 135.908C102.433 135.163 99.8197 136.43 99.153 139.112C98.4248 142.039 100.2 144.801 103.285 145.54C106.324 146.27 108.806 144.734 109.48 141.708C110.172 138.601 108.892 136.609 105.761 135.908Z" fill="white" fill-opacity="0.1"/>
<path d="M91.5008 44.4832C90.3672 44.1561 89.1513 44.2879 88.1143 44.8501C87.0772 45.4122 86.3026 46.3596 85.9584 47.4879C84.9858 50.397 86.548 53.6432 89.2974 54.4288C90.5387 54.774 91.8657 54.6191 92.9941 53.9973C94.123 53.3758 94.9629 52.3364 95.3346 51.1028C96.2937 48.3015 94.6478 45.4616 91.5008 44.4832Z" fill="white" fill-opacity="0.1"/>
<path d="M29.422 80.3685C29.8996 77.77 27.5303 74.4891 24.8952 74.1004C23.733 73.9754 22.5666 74.2876 21.6213 74.9752C20.676 75.6627 20.0207 76.6769 19.7819 77.8208C19.3938 80.3672 21.6054 83.0982 24.5024 83.6517C25.0428 83.7836 25.6047 83.8023 26.1524 83.7057C26.7 83.6091 27.2219 83.4 27.6842 83.0913C28.1465 82.7826 28.5396 82.3806 28.8388 81.9118C29.139 81.443 29.3366 80.9179 29.422 80.3685Z" fill="white" fill-opacity="0.1"/>
</g>
</g>
<defs>
<clipPath id="clip0_50_450">
<rect width="144" height="144" fill="white" transform="matrix(-0.965926 -0.258819 -0.258819 0.965926 176.363 37.2699)"/>
</clipPath>
</defs>
</svg>
