<svg width="213" height="124" viewBox="0 0 213 124" fill="none" xmlns="http://www.w3.org/2000/svg">
<rect width="213" height="124" rx="12" fill="#1B1B1B"/>
<rect x="0.5" y="0.5" width="212" height="123" rx="11.5" stroke="white" stroke-opacity="0.25"/>
<path d="M111.858 61.9518C111.858 59.083 109.459 56.757 106.5 56.757C103.541 56.757 101.142 59.083 101.142 61.9518C101.142 64.821 103.541 67.1468 106.5 67.1468C109.459 67.1468 111.858 64.821 111.858 61.9518Z" fill="#53C1DE"/>
<path fill-rule="evenodd" clip-rule="evenodd" d="M123.901 52.3074C125.032 47.8496 126.454 39.583 121.441 36.7803C116.451 33.9899 109.957 39.3369 106.528 42.5464C103.109 39.3688 96.4326 34.0447 91.4233 36.8563C86.435 39.6561 87.9733 47.7856 89.1298 52.2714C84.4766 53.5528 76.5 56.3128 76.5 61.9518C76.5 67.5748 84.4683 70.5776 89.094 71.8578C87.9332 76.3684 86.4719 84.3818 91.4665 87.1754C96.4946 89.9864 103.15 84.789 106.611 81.5444C110.062 84.7728 116.493 90.0042 121.484 87.2028C126.491 84.3926 125.187 76.2368 124.031 71.725C128.515 70.442 136.5 67.5046 136.5 61.9518C136.5 56.367 128.481 53.5846 123.901 52.3074ZM123.332 69.334C122.573 67.0032 121.548 64.5246 120.294 61.9642C121.491 59.4642 122.476 57.0176 123.214 54.7018C126.572 55.6456 133.937 57.8026 133.937 61.9518C133.937 66.14 126.869 68.3174 123.332 69.334ZM120.2 85.052C116.476 87.142 110.944 82.1392 108.396 79.7618C110.086 77.9688 111.776 75.8844 113.425 73.5698C116.326 73.3204 119.066 72.9124 121.551 72.3554C122.365 75.5468 123.94 82.9526 120.2 85.052ZM92.7472 85.0222C89.0229 82.94 90.7252 75.7892 91.5791 72.4666C94.0367 72.9938 96.7572 73.373 99.6648 73.6016C101.325 75.8664 103.063 77.9482 104.815 79.7714C102.651 81.8016 96.489 87.114 92.7472 85.0222ZM79.063 61.9518C79.063 57.748 86.3841 55.6066 89.8181 54.6652C90.569 57.033 91.5539 59.5088 92.7425 62.0124C91.5385 64.5532 90.5395 67.0682 89.7817 69.464C86.5074 68.5552 79.063 66.1582 79.063 61.9518ZM92.7074 39.0071C96.447 36.9083 102.249 42.0197 104.732 44.3203C102.989 46.1351 101.266 48.2012 99.6206 50.453C96.7988 50.7066 94.0975 51.1138 91.6142 51.6594C90.6825 48.0414 88.9718 41.1036 92.7074 39.0071ZM115.259 53.1542C117.173 53.3884 119.007 53.7 120.729 54.0812C120.212 55.688 119.568 57.3682 118.809 59.0906C117.709 57.0666 116.528 55.0832 115.259 53.1542ZM106.529 46.0962C107.711 47.3379 108.895 48.7246 110.06 50.229C107.697 50.1206 105.331 50.1202 102.968 50.2274C104.134 48.737 105.328 47.3524 106.529 46.0962ZM94.213 59.0888C93.4666 57.3724 92.828 55.6848 92.3064 54.055C94.0184 53.6836 95.844 53.38 97.746 53.1496C96.4732 55.0744 95.2942 57.057 94.213 59.0888ZM97.8006 70.9314C95.8358 70.7188 93.9825 70.4306 92.2711 70.0694C92.8009 68.411 93.4536 66.687 94.2159 64.9336C95.312 66.9866 96.509 68.9884 97.8006 70.9314ZM106.6 77.983C105.385 76.712 104.173 75.3062 102.99 73.7942C105.366 73.8846 107.746 73.8848 110.122 73.782C108.954 75.3216 107.774 76.7294 106.6 77.983ZM118.833 64.8444C119.635 66.6168 120.311 68.3314 120.848 69.9618C119.109 70.3468 117.23 70.6568 115.251 70.887C116.53 68.9214 117.73 66.9072 118.833 64.8444ZM111.995 71.1882C108.36 71.44 104.703 71.4372 101.068 71.2088C99.0018 68.283 97.1628 65.206 95.5754 62.0116C97.1552 58.8238 98.9808 55.7528 101.037 52.8316C104.675 52.565 108.336 52.5642 111.974 52.8332C114.012 55.7542 115.835 58.8172 117.451 61.9762C115.854 65.1624 114.019 68.2396 111.995 71.1882ZM120.161 38.9332C123.901 41.0251 122.236 48.4545 121.419 51.6852C118.93 51.1282 116.227 50.7138 113.397 50.4562C111.748 48.1801 110.04 46.1104 108.325 44.319C110.839 41.9688 116.456 36.8618 120.161 38.9332Z" fill="#53C1DE"/>
</svg>
