<svg width="213" height="124" viewBox="0 0 213 124" fill="none" xmlns="http://www.w3.org/2000/svg">
<rect width="213" height="124" rx="12" fill="#1B1B1B"/>
<rect x="0.5" y="0.5" width="212" height="123" rx="11.5" stroke="white" stroke-opacity="0.25"/>
<path d="M92.5 57.4C94.3667 49.9333 99.0333 46.2 106.5 46.2C117.7 46.2 119.1 54.6 124.7 56C128.433 56.9333 131.7 55.5333 134.5 51.8C132.633 59.2667 127.967 63 120.5 63C109.3 63 107.9 54.6 102.3 53.2C98.5667 52.2667 95.3 53.6667 92.5 57.4ZM78.5 74.2C80.3667 66.7333 85.0333 63 92.5 63C103.7 63 105.1 71.4 110.7 72.8C114.433 73.7333 117.7 72.3333 120.5 68.6C118.633 76.0667 113.967 79.8 106.5 79.8C95.3 79.8 93.9 71.4 88.3 70C84.5667 69.0667 81.3 70.4667 78.5 74.2Z" fill="#44A8B3"/>
</svg>
